# xmcd
#
# Track frame offsets:
# 150
# 17280
# 36067
# 52645
# 69250
# 83105
# 105070
# 123170
# 137007
# 153215
#
# Disc length: 2236 seconds
#
#
# Revision: 0
# Processed by: cddbd v1.4PL0 Copyright (c) Steve Scherf et al.
# Submitted via: FreeRIP 2.51 
#
DISCID=5e08ba0a
DTITLE=The Gold Diggers - Big Fish, Small Pond
DYEAR=1997
DGENRE=Country
TTITLE0=Big Fish, Small Pond
TTITLE1=The best is yet to come
TTITLE2=I bid Adieu
TTITLE3=Rain Or Pain
TTITLE4=Seeing the light
TTITLE5=You and I
TTITLE6=Tell Me Why
TTITLE7=Lonesome you, Lonesome me
TTITLE8=Leaving For Love
TTITLE9=Words From The Wise
EXTD=
EXTT0=
EXTT1=
EXTT2=
EXTT3=
EXTT4=
EXTT5=
EXTT6=
EXTT7=
EXTT8=
EXTT9=
PLAYORDER=
